<?xml version="1.0" encoding="UTF-8"?>
<svg version="1.1" xmlns="http://www.w3.org/2000/svg" width="38" height="38">
<path d="M0 0 C12.54 0 25.08 0 38 0 C38 12.54 38 25.08 38 38 C25.46 38 12.92 38 0 38 C0 25.46 0 12.92 0 0 Z " fill="#987C74" transform="translate(0,0)"/>
<path d="M0 0 C12.54 0 25.08 0 38 0 C38 11.88 38 23.76 38 36 C29 30 29 30 27 27 C23.56684863 25.82861866 23.56684863 25.82861866 20 25 C19.01 24.67 18.02 24.34 17 24 C19 23 21 22 23 21 C23.33 21.66 23.66 22.32 24 23 C24.99 23 25.98 23 27 23 C28.31269303 18.3517755 28.69253541 13.79202663 28 9 C25.33367019 5.60648933 23.74717122 5.10673875 19.5 4.5 C15.15628482 5.12053074 13.75139117 5.54110824 11 9 C9.98687896 12.9680574 9.42868387 16.93070238 9 21 C8.34 21 7.68 21 7 21 C6.71125 21.598125 6.4225 22.19625 6.125 22.8125 C5 25 5 25 3 28 C2.01 28 1.02 28 0 28 C0 18.76 0 9.52 0 0 Z " fill="#BEAA99" transform="translate(0,0)"/>
<path d="M0 0 C2.63360978 1.41809757 3.91527728 2.7118897 6 5 C6.375 7.8125 6.375 7.8125 6 10 C2.25 11.125 2.25 11.125 0 10 C-3 9.66666667 -3 9.66666667 -6 10 C-6.99 11.485 -6.99 11.485 -8 13 C-9.65 12.67 -11.3 12.34 -13 12 C-13.375 8.8125 -13.375 8.8125 -13 5 C-9.04091163 0.46153284 -6.18076439 -1.10370793 0 0 Z " fill="#5E444C" transform="translate(23,4)"/>
<path d="M0 0 C3.40652614 1.13550871 4.49523872 2.49523872 7 5 C8.3303125 5.7425 8.3303125 5.7425 9.6875 6.5 C12 8 12 8 13 12 C5.08 12 -2.84 12 -11 12 C-9 10 -9 10 -6 9.3125 C-5.01 8.879375 -4.02 8.44625 -3 8 C-1.60961255 4.50973758 -1.60961255 4.50973758 -1 1 C-0.67 0.67 -0.34 0.34 0 0 Z " fill="#706767" transform="translate(25,26)"/>
<path d="M0 0 C0.89130413 2.6739124 1.47731534 5.23723823 2 8 C2.99 8.33 3.98 8.66 5 9 C5.33 11.31 5.66 13.62 6 16 C1.71 16 -2.58 16 -7 16 C-7 12.7 -7 9.4 -7 6 C-6.01 5.67 -5.02 5.34 -4 5 C-2.61423077 3.37667033 -1.27358732 1.71275535 0 0 Z " fill="#6F6465" transform="translate(7,22)"/>
<path d="M0 0 C0.66 0.33 1.32 0.66 2 1 C1.01 2.3303125 1.01 2.3303125 0 3.6875 C-1.98860067 6.98111986 -2.43735074 8.28251873 -2 12 C0.31 12 2.62 12 5 12 C5 11.34 5 10.68 5 10 C4.01 9.34 3.02 8.68 2 8 C1.8125 5.375 1.8125 5.375 2 3 C4.3125 2.8125 4.3125 2.8125 7 3 C8.66796875 4.51171875 8.66796875 4.51171875 10 6 C8.67875648 11.37305699 8.67875648 11.37305699 7 14 C4.1121946 15.57190826 1.21237609 16.35348406 -2 17 C-3 16 -3 16 -3.0625 12.9375 C-3.041875 11.968125 -3.02125 10.99875 -3 10 C-4.32 9.67 -5.64 9.34 -7 9 C-7.33 7.35 -7.66 5.7 -8 4 C-6.66666667 3.33333333 -5.33333333 2.66666667 -4 2 C-3.29875 1.608125 -2.5975 1.21625 -1.875 0.8125 C-1.25625 0.544375 -0.6375 0.27625 0 0 Z " fill="#718392" transform="translate(15,21)"/>
<path d="M0 0 C2.64188447 1.4047657 3.91568424 2.71233636 6 5 C6.375 7.8125 6.375 7.8125 6 10 C1.99799622 11.60080151 -1.04556236 10.29279692 -5 9 C-5 8.67 -5 8.34 -5 8 C-1.535 7.505 -1.535 7.505 2 7 C2 6.01 2 5.02 2 4 C0.2507786 3.91857073 -1.49954542 3.86061459 -3.25 3.8125 C-4.22453125 3.77769531 -5.1990625 3.74289062 -6.203125 3.70703125 C-9.37468742 4.03924798 -10.67040307 4.88672279 -13 7 C-10.40021548 0.71718741 -6.71113061 -0.92567319 0 0 Z " fill="#705859" transform="translate(23,4)"/>
<path d="M0 0 C3.94726562 -0.42905061 6.61242079 -0.08466413 10 2 C10 2.99 10 3.98 10 5 C7.17999162 6.41000419 4.40642297 6.37608381 1.2890625 6.62109375 C-1.13589449 7.02249448 -2.8696298 7.79862685 -5 9 C-5.66 8.34 -6.32 7.68 -7 7 C-6.67 6.01 -6.34 5.02 -6 4 C-4.66923011 3.65657551 -3.33568021 3.32380126 -2 3 C-1.34 2.01 -0.68 1.02 0 0 Z " fill="#AE8979" transform="translate(17,13)"/>
<path d="M0 0 C0.66 0.33 1.32 0.66 2 1 C2.12375 1.804375 2.2475 2.60875 2.375 3.4375 C2.72567164 6.15983399 2.72567164 6.15983399 5.0625 7.3125 C5.701875 7.539375 6.34125 7.76625 7 8 C6.34 8 5.68 8 5 8 C5 8.66 5 9.32 5 10 C2.69 10 0.38 10 -2 10 C-3.06351675 6.61608307 -3.21442982 5.4195366 -1.5625 2.1875 C-1.046875 1.465625 -0.53125 0.74375 0 0 Z " fill="#705256" transform="translate(15,23)"/>
<path d="M0 0 C0.66 0.33 1.32 0.66 2 1 C1.34 1.928125 0.68 2.85625 0 3.8125 C-2.26574554 6.79636556 -2.26574554 6.79636556 -2 10 C-3.65 9.67 -5.3 9.34 -7 9 C-7.33 7.35 -7.66 5.7 -8 4 C-6.66666667 3.33333333 -5.33333333 2.66666667 -4 2 C-3.29875 1.608125 -2.5975 1.21625 -1.875 0.8125 C-1.25625 0.544375 -0.6375 0.27625 0 0 Z " fill="#CDB5B3" transform="translate(15,21)"/>
<path d="M0 0 C0.66 0 1.32 0 2 0 C2.42517871 2.97625094 2.54646944 5.13034972 0.91015625 7.734375 C-2.01871754 10.99731132 -3.36864073 11.93890072 -7.875 12.375 C-8.90625 12.25125 -9.9375 12.1275 -11 12 C-9 10 -9 10 -6 9.3125 C-5.01 8.879375 -4.02 8.44625 -3 8 C-1.60961255 4.50973758 -1.60961255 4.50973758 -1 1 C-0.67 0.67 -0.34 0.34 0 0 Z " fill="#5D5863" transform="translate(25,26)"/>
<path d="M0 0 C4.55384615 -0.36923077 4.55384615 -0.36923077 6.8125 1.5 C7.204375 1.995 7.59625 2.49 8 3 C7.01 4.485 7.01 4.485 6 6 C3.4375 6.25 3.4375 6.25 1 6 C0 5 0 5 -0.0625 2.4375 C-0.041875 1.633125 -0.02125 0.82875 0 0 Z " fill="#A17B6E" transform="translate(17,24)"/>
<path d="M0 0 C6.75 -0.125 6.75 -0.125 9 1 C9 1.99 9 2.98 9 4 C6.36 4 3.72 4 1 4 C0.67 2.68 0.34 1.36 0 0 Z " fill="#DAB9B3" transform="translate(18,14)"/>
<path d="M0 0 C0.66 0.33 1.32 0.66 2 1 C2 2.32 2 3.64 2 5 C3.65 4.34 5.3 3.68 7 3 C7 3.66 7 4.32 7 5 C6.05125 5.45375 5.1025 5.9075 4.125 6.375 C0.99686321 7.80238254 0.99686321 7.80238254 -1 10 C-1.66 8.35 -2.32 6.7 -3 5 C-2.34 5 -1.68 5 -1 5 C-0.67 3.35 -0.34 1.7 0 0 Z " fill="#AB8073" transform="translate(10,16)"/>
<path d="M0 0 C0.33 2.31 0.66 4.62 1 7 C0.34 7 -0.32 7 -1 7 C-1.103125 6.360625 -1.20625 5.72125 -1.3125 5.0625 C-1.6528125 4.0415625 -1.6528125 4.0415625 -2 3 C-2.99 2.67 -3.98 2.34 -5 2 C-5.99 2.99 -6.98 3.98 -8 5 C-8.33 4.34 -8.66 3.68 -9 3 C-8.67 2.01 -8.34 1.02 -8 0 C-5.13822943 -1.43088528 -3.06624227 -0.59991697 0 0 Z " fill="#65585C" transform="translate(12,31)"/>
<path d="M0 0 C2.97 0.33 5.94 0.66 9 1 C5.66189518 2.66905241 2.53842155 3.8741386 -1 5 C-0.67 3.35 -0.34 1.7 0 0 Z " fill="#896A67" transform="translate(17,19)"/>
<path d="M0 0 C-0.33 0.99 -0.66 1.98 -1 3 C-2.36125 2.9071875 -2.36125 2.9071875 -3.75 2.8125 C-7.28982642 3.01672076 -8.44931155 3.64551835 -11 6 C-8.60159776 0.46522561 -5.82500047 -0.25888891 0 0 Z " fill="#6A5254" transform="translate(21,5)"/>
<path d="M0 0 C0.33 0.99 0.66 1.98 1 3 C-1.3125 6.1875 -1.3125 6.1875 -4 9 C-4.66 9 -5.32 9 -6 9 C-6 6 -6 6 -3.5625 3.375 C-2.716875 2.59125 -1.87125 1.8075 -1 1 C-0.67 0.67 -0.34 0.34 0 0 Z " fill="#684F52" transform="translate(7,22)"/>
<path d="M0 0 C2.97 0.495 2.97 0.495 6 1 C4.68 2.32 3.36 3.64 2 5 C1.01 4.34 0.02 3.68 -1 3 C-0.67 2.01 -0.34 1.02 0 0 Z " fill="#D5B3AF" transform="translate(11,17)"/>
</svg>
